<svg xmlns="http://www.w3.org/2000/svg"
shape-rendering="geometricPrecision"
width="4000" height="4000" viewBox="0 0 1024 1024"><rect width="100%" height="100%" fill="#FFFFFE" />
  <metadata>null</metadata>

<path d="
M 303.457 505.107
C 304.479 498.261 304.746 491.339 305.925 484.483
C 308.162 471.487 312.253 458.615 317.55 446.551
C 323.197 433.692 330.348 421.41 339.176 410.47
C 367.177 375.771 409.492 355.325 453.634 351.706
C 467.04 350.607 480.418 350.806 493.767 352.594
C 497.291 353.066 500.834 353.538 504.328 354.203
C 505.744 354.473 507.595 354.613 508.89 355.191
C 508.982 355.56 507.784 355.575 507.5 355.601
C 506.167 355.723 504.827 355.764 503.495 355.92
C 499.992 356.332 496.464 356.791 492.973 357.345
C 482.22 359.053 471.263 361.598 461.039 365.37
C 448.169 370.117 435.346 375.418 423.519 382.432
C 414.203 387.956 405.821 394.758 397.262 401.344
C 390.692 406.399 383.837 411.193 377.477 416.51
C 368.956 423.634 361.238 431.954 354.36 440.656
C 347.224 449.685 340.636 458.992 334.974 469.032
C 326.85 483.438 321.252 499.166 317.224 515.157
C 313.884 528.414 312.304 542.331 312.208 555.989
C 312.182 559.66 312.132 563.335 312.351 567.001
C 312.405 567.893 313.038 570.673 312.431 571.291
C 311.397 570.928 310.953 568.325 310.629 567.388
C 309.333 563.631 308.441 559.689 307.526 555.823
C 303.637 539.388 302.134 521.962 303.457 505.107 Z"
opacity="1" fill="rgb(204,159,59)" fill-rule="evenodd" />
<path d="
M 323.959 540.107
C 325.029 530.46 326.267 521.013 328.678 511.584
C 336.704 480.199 355.128 449.757 379.79 428.684
C 380.152 428.697 379.514 429.778 379.404 429.968
C 378.553 431.441 377.513 432.778 376.717 434.289
C 374.75 438.022 372.752 441.71 370.961 445.534
C 365.716 456.739 361.913 468.607 359.016 480.616
C 356.062 492.86 354.571 505.711 354.422 518.296
C 354.329 526.214 354.874 534.103 355.109 542.008
C 355.602 558.639 356.859 574.889 361.581 590.952
C 372.545 628.251 395.268 662.396 426.183 686.139
C 436.84 694.324 448.296 701.053 460.211 707.226
C 464.61 709.505 469.24 711.387 473.857 713.166
C 474.51 713.417 477.875 714.531 477.47 715.293
C 472.413 715.706 466.512 713.722 461.602 712.628
C 448.572 709.724 436.189 705.522 424 700.1
C 362.615 672.791 318.427 608.364 323.959 540.107 Z"
opacity="1" fill="rgb(35,33,106)" fill-rule="evenodd" />
<path d="
M 355.354 377.558
C 356.269 375.594 358.108 373.806 359.596 372.252
C 361.725 370.028 363.753 367.715 365.897 365.505
C 375.863 355.235 387.157 346.299 399.229 338.634
C 415.1 328.556 432.504 320.931 450.708 316.222
C 502.184 302.909 558.683 316.652 598.809 351.327
C 620.507 370.078 638.027 394.466 647.955 421.453
C 650.177 427.494 651.821 433.687 653.873 439.779
C 654.393 441.323 654.807 442.927 655.234 444.5
C 655.349 444.925 655.821 446.043 655.496 446.399
C 651.382 441.279 648.792 434.738 644.986 429.333
C 636.996 417.982 627.669 407.443 617.299 398.206
C 606.632 388.704 595.113 379.947 582.454 373.255
C 573.641 368.596 564.349 365.118 555.242 361.12
C 544.162 356.256 533.164 351.186 521.426 348.052
C 493.237 340.525 463.407 338.423 434.617 343.872
C 416.069 347.383 398.166 353.531 381.452 362.294
C 375.06 365.645 368.804 369.202 362.817 373.237
C 361.33 374.239 359.836 375.247 358.411 376.336
C 357.384 377.121 356.501 378.127 355.162 378.227
C 355.226 378.004 355.29 377.781 355.354 377.558 Z"
opacity="1" fill="rgb(33,33,106)" fill-rule="evenodd" />
<path d="
M 369.303 578.735
C 372.351 582.824 374.644 587.6 377.463 591.872
C 383.99 601.764 391.437 611.133 399.965 619.383
C 419.65 638.427 442.501 652.416 467.491 663.337
C 480.101 668.847 492.749 674.196 506.138 677.561
C 535.71 684.993 566.56 685.581 596.324 679.008
C 614.488 674.997 631.489 667.845 647.783 658.988
C 652.719 656.305 657.514 653.144 662.109 649.922
C 664.536 648.219 666.952 645.787 669.707 644.664
C 670.056 645.212 669.078 646.108 668.751 646.502
C 667.645 647.833 666.578 649.193 665.445 650.502
C 660.395 656.338 655.139 661.803 649.457 667.036
C 625.984 688.656 595.357 703.73 564.037 709.648
C 505.717 720.668 443.31 698.332 405.577 652.36
C 392.385 636.289 382.006 618.274 374.92 598.71
C 372.566 592.209 370.887 585.514 369.154 578.839
C 369.204 578.804 369.253 578.77 369.303 578.735 Z"
opacity="1" fill="rgb(210,166,67)" fill-rule="evenodd" />
<path d="
M 469.405 414.032
C 468.795 413.199 466.603 414.319 465.774 414.569
C 462.322 415.611 458.884 416.695 455.417 417.681
C 445.678 420.452 436.062 423.659 426.335 426.461
C 421.244 427.928 416.036 429.293 411.072 431.121
C 410.668 431.876 410.881 432.994 410.91 433.831
C 410.977 435.693 411.092 437.551 411.152 439.413
C 411.393 446.865 411.877 454.293 412.284 461.734
C 413.206 478.572 415.038 495.338 417.068 512.074
C 418.694 525.478 420.572 539.076 424.002 552.152
C 426.298 560.9 429.301 569.29 433.583 577.275
C 434.59 579.153 435.603 581.021 436.698 582.85
C 437.088 583.5 437.568 584.671 438.317 584.94
C 438.936 586.984 440.855 589.083 442.128 590.783
C 445.078 594.724 448.317 598.321 451.536 602.029
C 462.337 614.475 476.65 624.338 490.882 632.457
C 497.609 636.294 504.521 640.545 511.882 643.042
C 515.02 641.977 517.916 640.146 520.874 638.673
C 526.328 635.957 531.709 633.18 536.916 630.008
C 559.663 616.153 580.034 598.367 591.982 574.172
C 601.923 554.043 604.725 530.513 607.392 508.499
C 608.925 495.856 610.03 483.203 610.953 470.498
C 611.327 465.343 611.977 460.134 611.845 454.954
C 611.78 449.154 612.141 443.254 612.451 437.455
C 612.539 435.801 612.615 434.148 612.665 432.492
C 612.681 431.989 612.904 431.24 612.62 430.823
C 597.667 427.022 582.981 421.818 568.125 417.602
C 563.675 416.339 559.275 414.654 554.748 413.719
C 555.688 410.618 557.971 406.898 559.803 404.212
C 561.885 403.921 564.461 405.037 566.464 405.601
C 570.891 406.849 575.333 408.071 579.73 409.42
C 589.147 412.31 598.64 415.168 608.151 417.723
C 613.495 419.159 619.233 420.551 624.328 422.707
C 624.879 424.052 624.441 426.49 624.404 427.965
C 624.303 431.985 624.086 435.989 623.909 440.003
C 623.471 449.997 623.064 459.975 622.413 469.953
C 622.129 474.318 622.069 478.79 621.451 483.119
C 620.729 488.181 620.645 493.369 620.078 498.456
C 618.411 513.417 616.522 528.375 613.416 543.122
C 611.51 552.172 609.483 561.154 606.116 569.802
C 595.118 598.041 573.659 619.939 548.437 636.077
C 540.077 641.426 531.439 646.148 522.555 650.561
C 520.176 651.743 517.763 652.878 515.337 653.961
C 514.333 654.409 513.204 655.288 512.087 655.368
C 510.719 655.467 509.095 654.172 507.884 653.616
C 504.563 652.091 501.198 650.649 497.944 648.979
C 485.336 642.509 473.331 635.263 462.024 626.708
C 444.894 613.746 429.905 596.567 420.928 576.969
C 413.842 561.499 410.666 544.884 407.994 528.184
C 405.229 510.902 403.2 493.449 402.116 475.981
C 401.34 463.478 400.454 451.012 400.117 438.477
C 400.019 434.811 399.751 431.146 399.689 427.475
C 399.663 425.972 399.348 424.308 399.687 422.841
C 405.119 420.219 411.527 419.327 417.262 417.488
C 432.608 412.565 448.216 408.411 463.726 404.053
C 465.996 406.809 467.861 410.811 469.405 414.032 Z"
opacity="1" fill="rgb(208,164,67)" fill-rule="evenodd" />
<path d="
M 469.405 414.032
C 470.842 418.524 473.786 422.744 475.704 427.07
C 476.224 428.243 477.782 430.579 477.404 431.856
C 474.077 434.53 469.84 437.473 467.588 441.171
C 467.683 441.814 470.295 439.991 470.793 439.725
C 472.908 438.596 475.058 437.536 477.228 436.516
C 483.598 433.524 490.598 431.298 497.51 429.946
C 511.615 427.187 524.933 428.7 538.472 433.219
C 545.156 435.45 552.227 438.325 558.082 442.314
C 558.211 441.809 557.618 440.953 557.395 440.48
C 558.759 440.393 560.255 441.404 561.495 441.934
C 564.434 443.189 567.333 444.52 570.313 445.679
C 579.287 449.17 588.781 451.597 598.28 453.141
C 601.53 453.67 604.796 454.2 608.082 454.428
C 608.958 454.488 611.29 454.253 611.845 454.954
C 611.977 460.134 611.327 465.343 610.953 470.498
C 610.03 483.203 608.925 495.856 607.392 508.499
C 604.725 530.513 601.923 554.043 591.982 574.172
C 580.034 598.367 559.663 616.153 536.916 630.008
C 531.709 633.18 526.328 635.957 520.874 638.673
C 517.916 640.146 515.02 641.977 511.882 643.042
C 511.414 640.354 511.709 637.46 511.693 634.739
C 511.666 630.324 511.487 625.914 511.426 621.501
C 511.395 619.213 512.039 615.389 511.076 613.292
C 510.323 611.652 508.141 610.391 506.748 609.351
C 503.182 606.69 499.661 604.13 495.812 601.884
C 483.564 594.738 469.97 590.437 456.141 587.591
C 450.421 586.413 444.174 584.808 438.317 584.94
C 437.568 584.671 437.088 583.5 436.698 582.85
C 435.603 581.021 434.59 579.153 433.583 577.275
C 429.301 569.29 426.298 560.9 424.002 552.152
C 420.572 539.076 418.694 525.478 417.068 512.074
C 415.038 495.338 413.206 478.572 412.284 461.734
C 411.877 454.293 411.393 446.865 411.152 439.413
C 411.092 437.551 410.977 435.693 410.91 433.831
C 410.881 432.994 410.668 431.876 411.072 431.121
C 416.036 429.293 421.244 427.928 426.335 426.461
C 436.062 423.659 445.678 420.452 455.417 417.681
C 458.884 416.695 462.322 415.611 465.774 414.569
C 466.603 414.319 468.795 413.199 469.405 414.032 Z
M 440.929 549.604
C 441.547 550.212 442.842 550.096 443.648 550.148
C 445.676 550.279 447.718 550.595 449.731 550.873
C 458.308 552.058 467.662 553.049 476.298 552.669
C 477.162 551.2 477.685 549.447 478.521 547.932
C 481.167 556.417 482.032 565.471 484.825 573.886
C 484.97 574.13 485.128 572.936 485.13 572.921
C 485.246 572.167 485.332 571.408 485.472 570.658
C 485.85 568.633 486.273 566.617 486.664 564.595
C 487.845 558.491 489.25 552.345 491.035 546.391
C 491.869 547.829 491.929 549.718 492.218 551.351
C 492.732 554.254 493.371 557.138 493.936 560.032
C 496.115 571.19 498.257 582.676 499.548 593.962
C 500.146 593.861 500.122 591.481 500.194 590.953
C 500.636 587.679 501.152 584.419 501.72 581.165
C 503.244 572.433 504.652 563.683 506.236 554.96
C 506.975 550.89 507.305 545.504 509.485 541.92
C 510.79 541.852 510.736 545.206 510.841 546.18
C 511.349 550.871 511.995 555.558 512.322 560.263
C 513.335 574.83 514.86 589.357 515.976 603.921
C 516.282 607.919 516.583 611.924 516.949 615.917
C 517.141 618.004 517.758 620.461 517.484 622.541
C 518.144 622.625 518.227 619.153 518.276 618.707
C 518.765 614.325 519.834 609.899 520.551 605.532
C 523.609 586.931 526.956 568.259 529.234 549.564
C 530.104 552.36 530.277 555.625 530.67 558.535
C 531.461 564.376 532.425 570.2 533.085 576.062
C 533.564 580.319 533.845 585.172 535.152 589.263
C 535.555 589.306 535.632 587.601 535.661 587.343
C 535.915 585.079 536.276 582.856 536.646 580.607
C 538.188 571.217 539.139 561.694 541.2 552.399
C 541.265 552.118 541.126 551.66 541.395 551.558
C 541.42 551.548 541.779 553.276 541.821 553.448
C 542.133 554.718 542.546 555.954 542.814 557.235
C 543.591 560.956 544.207 564.976 545.483 568.561
C 546.26 567.013 546.412 565.108 546.778 563.43
C 547.55 559.879 548.42 555.881 549.926 552.571
C 552.606 551.664 556.158 552.229 558.98 552.08
C 564.67 551.781 570.343 551.494 576.005 550.809
C 578.076 550.559 580.146 550.314 582.215 550.074
C 582.775 550.008 583.949 550.106 584.389 549.716
C 583.471 549.191 582.16 549.323 581.143 549.168
C 579.005 548.843 576.864 548.692 574.717 548.447
C 569.328 547.831 563.921 547.623 558.524 547.147
C 555.226 546.856 551.336 546.04 548.054 546.442
C 547.421 546.924 546.183 550 545.623 549.96
C 543.941 543.213 543.498 536.252 542.446 529.394
C 542.183 527.683 541.931 525.898 541.793 524.174
C 541.747 523.592 541.74 522.295 541.382 521.926
C 541.205 521.744 541.255 522.417 541.181 522.659
C 540.882 523.632 540.695 524.553 540.511 525.551
C 540.082 527.87 539.679 530.192 539.301 532.521
C 538.566 537.051 537.734 541.563 536.905 546.076
C 536.449 548.557 536.413 551.738 535.398 554.038
C 534.97 552.986 535.065 551.633 534.945 550.508
C 534.699 548.191 534.444 545.874 534.181 543.558
C 533.295 535.789 532.301 528.015 531.334 520.254
C 530.886 516.655 530.502 513.038 529.946 509.457
C 529.749 508.188 530.147 505.108 529.221 504.18
C 529.113 504.071 529.072 504.448 528.997 504.582
C 528.142 508.106 527.786 511.852 527.198 515.437
C 525.529 525.615 524.082 535.825 522.441 546.009
C 521.86 549.613 521.293 553.219 520.66 556.813
C 520.491 557.774 520.495 560.073 519.871 560.801
C 519.192 559.582 519.342 557.461 519.223 556.086
C 518.917 552.545 518.533 549.016 518.197 545.479
C 517.07 533.641 515.646 521.823 514.643 509.976
C 514.186 504.576 513.467 499.18 512.666 493.82
C 512.4 492.046 512.208 490.238 512.157 488.445
C 512.148 488.145 512.077 485.771 511.662 486.261
C 506.876 501.688 505.163 518.144 502.484 534.027
C 501.776 538.23 501.279 542.471 500.573 546.675
C 500.32 548.183 500.563 550.619 499.765 551.901
C 499.342 551.6 499.21 549.215 499.103 548.59
C 498.533 545.256 497.987 541.961 497.557 538.606
C 496.393 529.519 495.101 520.44 493.734 511.381
C 493.125 507.341 492.942 503.033 491.804 499.125
C 490.006 511.017 488.175 522.908 486.287 534.794
C 485.766 538.073 485.166 541.347 484.583 544.616
C 484.423 545.512 484.496 547.676 483.923 548.325
C 482.27 544.448 481.565 540.305 480.236 536.328
C 479.854 535.186 479.661 532.707 478.534 532.141
C 477.64 533.242 477.431 534.936 477.001 536.297
C 475.944 539.638 475.575 543.623 473.645 546.608
C 472.434 546.946 470.96 546.773 469.707 546.826
C 466.892 546.946 464.092 547.147 461.278 547.284
C 454.496 547.613 447.612 548.55 440.929 549.604 Z
M 482.465 473.657
C 482.383 473.823 482.301 473.988 482.218 474.154
C 483.824 474.286 486.538 473.043 488.123 472.568
C 492.03 471.396 496.026 470.297 499.996 469.36
C 501.747 468.947 503.64 467.946 505.457 468.355
C 506.353 470.283 505.699 473.38 505.664 475.474
C 505.569 481.225 504.93 487.214 505.493 492.942
C 506.144 492.986 506.601 489.502 506.751 488.862
C 507.84 484.221 509.855 479.802 511.383 475.298
C 513.952 481.39 516.64 487.625 518.108 494.083
C 518.45 494.255 518.241 491.542 518.237 491.156
C 518.222 489.272 518.236 487.39 518.229 485.505
C 518.208 479.87 517.782 473.923 518.457 468.33
C 520.45 467.675 523.485 469.168 525.432 469.734
C 528.955 470.759 532.456 471.852 535.972 472.898
C 537.837 473.453 539.871 474.449 541.812 474.628
C 540.729 471.481 537.584 468.24 535.762 465.439
C 530.299 457.042 524.498 448.861 518.813 440.615
C 517.007 437.995 515.207 435.376 513.329 432.806
C 512.83 432.124 512.244 430.381 511.438 430.839
C 505.569 440.297 499.131 449.544 492.7 458.633
C 489.228 463.539 486.347 469.062 482.465 473.657 Z"
opacity="1" fill="rgb(34,69,126)" fill-rule="evenodd" />
<path d="
M 438.317 584.94
C 444.174 584.808 450.421 586.413 456.141 587.591
C 469.97 590.437 483.564 594.738 495.812 601.884
C 499.661 604.13 503.182 606.69 506.748 609.351
C 508.141 610.391 510.323 611.652 511.076 613.292
C 512.039 615.389 511.395 619.213 511.426 621.501
C 511.487 625.914 511.666 630.324 511.693 634.739
C 511.709 637.46 511.414 640.354 511.882 643.042
C 504.521 640.545 497.609 636.294 490.882 632.457
C 476.65 624.338 462.337 614.475 451.536 602.029
C 448.317 598.321 445.078 594.724 442.128 590.783
C 440.855 589.083 438.936 586.984 438.317 584.94 Z"
opacity="1" fill="rgb(218,42,40)" fill-rule="evenodd" />
<path d="
M 440.929 549.604
C 447.612 548.55 454.496 547.613 461.278 547.284
C 464.092 547.147 466.892 546.946 469.707 546.826
C 470.96 546.773 472.434 546.946 473.645 546.608
C 475.575 543.623 475.944 539.638 477.001 536.297
C 477.431 534.936 477.64 533.242 478.534 532.141
C 479.661 532.707 479.854 535.186 480.236 536.328
C 481.565 540.305 482.27 544.448 483.923 548.325
C 484.496 547.676 484.423 545.512 484.583 544.616
C 485.166 541.347 485.766 538.073 486.287 534.794
C 488.175 522.908 490.006 511.017 491.804 499.125
C 492.942 503.033 493.125 507.341 493.734 511.381
C 495.101 520.44 496.393 529.519 497.557 538.606
C 497.987 541.961 498.533 545.256 499.103 548.59
C 499.21 549.215 499.342 551.6 499.765 551.901
C 500.563 550.619 500.32 548.183 500.573 546.675
C 501.279 542.471 501.776 538.23 502.484 534.027
C 505.163 518.144 506.876 501.688 511.662 486.261
C 512.077 485.771 512.148 488.145 512.157 488.445
C 512.208 490.238 512.4 492.046 512.666 493.82
C 513.467 499.18 514.186 504.576 514.643 509.976
C 515.646 521.823 517.07 533.641 518.197 545.479
C 518.533 549.016 518.917 552.545 519.223 556.086
C 519.342 557.461 519.192 559.582 519.871 560.801
C 520.495 560.073 520.491 557.774 520.66 556.813
C 521.293 553.219 521.86 549.613 522.441 546.009
C 524.082 535.825 525.529 525.615 527.198 515.437
C 527.786 511.852 528.142 508.106 528.997 504.582
C 529.072 504.448 529.113 504.071 529.221 504.18
C 530.147 505.108 529.749 508.188 529.946 509.457
C 530.502 513.038 530.886 516.655 531.334 520.254
C 532.301 528.015 533.295 535.789 534.181 543.558
C 534.444 545.874 534.699 548.191 534.945 550.508
C 535.065 551.633 534.97 552.986 535.398 554.038
C 536.413 551.738 536.449 548.557 536.905 546.076
C 537.734 541.563 538.566 537.051 539.301 532.521
C 539.679 530.192 540.082 527.87 540.511 525.551
C 540.695 524.553 540.882 523.632 541.181 522.659
C 541.255 522.417 541.205 521.744 541.382 521.926
C 541.74 522.295 541.747 523.592 541.793 524.174
C 541.931 525.898 542.183 527.683 542.446 529.394
C 543.498 536.252 543.941 543.213 545.623 549.96
C 546.183 550 547.421 546.924 548.054 546.442
C 551.336 546.04 555.226 546.856 558.524 547.147
C 563.921 547.623 569.328 547.831 574.717 548.447
C 576.864 548.692 579.005 548.843 581.143 549.168
C 582.16 549.323 583.471 549.191 584.389 549.716
C 583.949 550.106 582.775 550.008 582.215 550.074
C 580.146 550.314 578.076 550.559 576.005 550.809
C 570.343 551.494 564.67 551.781 558.98 552.08
C 556.158 552.229 552.606 551.664 549.926 552.571
C 548.42 555.881 547.55 559.879 546.778 563.43
C 546.412 565.108 546.26 567.013 545.483 568.561
C 544.207 564.976 543.591 560.956 542.814 557.235
C 542.546 555.954 542.133 554.718 541.821 553.448
C 541.779 553.276 541.42 551.548 541.395 551.558
C 541.126 551.66 541.265 552.118 541.2 552.399
C 539.139 561.694 538.188 571.217 536.646 580.607
C 536.276 582.856 535.915 585.079 535.661 587.343
C 535.632 587.601 535.555 589.306 535.152 589.263
C 533.845 585.172 533.564 580.319 533.085 576.062
C 532.425 570.2 531.461 564.376 530.67 558.535
C 530.277 555.625 530.104 552.36 529.234 549.564
C 526.956 568.259 523.609 586.931 520.551 605.532
C 519.834 609.899 518.765 614.325 518.276 618.707
C 518.227 619.153 518.144 622.625 517.484 622.541
C 517.758 620.461 517.141 618.004 516.949 615.917
C 516.583 611.924 516.282 607.919 515.976 603.921
C 514.86 589.357 513.335 574.83 512.322 560.263
C 511.995 555.558 511.349 550.871 510.841 546.18
C 510.736 545.206 510.79 541.852 509.485 541.92
C 507.305 545.504 506.975 550.89 506.236 554.96
C 504.652 563.683 503.244 572.433 501.72 581.165
C 501.152 584.419 500.636 587.679 500.194 590.953
C 500.122 591.481 500.146 593.861 499.548 593.962
C 498.257 582.676 496.115 571.19 493.936 560.032
C 493.371 557.138 492.732 554.254 492.218 551.351
C 491.929 549.718 491.869 547.829 491.035 546.391
C 489.25 552.345 487.845 558.491 486.664 564.595
C 486.273 566.617 485.85 568.633 485.472 570.658
C 485.332 571.408 485.246 572.167 485.13 572.921
C 485.128 572.936 484.97 574.13 484.825 573.886
C 482.032 565.471 481.167 556.417 478.521 547.932
C 477.685 549.447 477.162 551.2 476.298 552.669
C 467.662 553.049 458.308 552.058 449.731 550.873
C 447.718 550.595 445.676 550.279 443.648 550.148
C 442.842 550.096 441.547 550.212 440.929 549.604 Z"
opacity="1" fill="rgb(211,172,81)" fill-rule="evenodd" />
<path d="
M 543.996 424.03
C 542.766 423.012 541.115 422.522 539.672 421.879
C 536.252 420.356 532.83 419.158 529.198 418.25
C 512.567 414.091 495.734 417.098 480.328 424.014
C 479.849 423.656 479.723 422.809 479.465 422.262
C 478.698 420.633 478.016 418.968 477.224 417.35
C 474.682 412.155 472.033 407.06 468.678 402.338
C 466.342 399.052 464.17 395.66 461.855 392.366
C 461.663 392.094 459.594 389.411 460.117 389.153
C 460.95 388.741 463.639 390.019 464.461 390.289
C 468.64 391.662 473.572 392.349 477.385 394.604
C 476.95 396.763 475.757 399.367 476.472 401.55
C 478.769 404.263 485.11 405.869 487.932 403.232
C 489.114 402.128 489.254 400.505 489.407 398.992
C 489.504 398.03 489.651 397.235 489.21 396.317
C 487.875 395.289 485.847 395.34 484.709 394.057
C 484.504 391.535 485.178 388.926 485.531 386.438
C 485.58 386.091 485.805 383.908 486.23 383.849
C 486.59 383.799 488.273 385.024 488.693 385.266
C 490.749 386.45 494.163 387.972 494.825 390.519
C 494.469 391.967 493.164 393.012 493.132 394.527
C 494.205 397.465 497.705 399.962 500.863 398.321
C 503.343 397.033 505.943 392.928 506.298 390.182
C 506.407 389.34 505.693 388.585 505.209 387.988
C 504.12 386.643 503.091 385.228 501.852 384.013
C 501.727 382.723 503.698 380.799 504.409 379.745
C 506.808 376.188 508.998 372.244 511.805 369.002
C 513.18 369.983 514.049 371.619 514.992 373.002
C 516.589 375.345 518.332 377.607 519.868 379.988
C 520.361 380.751 522.258 382.907 522 383.838
C 521.433 385.88 518.633 387.897 517.368 389.557
C 517.131 392.319 520.126 396.139 521.837 398.114
C 524.512 399.916 529.071 397.437 530.223 394.824
C 530.898 393.292 529.032 392.011 529.301 390.39
C 529.723 387.843 532.756 386.507 534.695 385.306
C 535.59 384.751 536.483 383.97 537.53 383.757
C 538.698 386.321 539.579 391.479 538.659 394.195
C 537.584 395.086 535.997 395.011 534.842 395.886
C 534.321 396.979 534.505 397.877 534.63 399.037
C 534.831 400.914 535.291 402.526 536.973 403.628
C 539.693 405.411 546.226 404.004 547.438 400.764
C 548.091 399.02 547.083 396.47 546.591 394.765
C 547.876 393.655 550.251 393.269 551.861 392.743
C 555.855 391.439 559.996 389.638 564.199 389.192
C 564.15 389.942 563.349 390.425 562.951 391.019
C 561.617 393.011 560.228 394.968 558.906 396.969
C 554.765 403.241 550.897 409.487 547.485 416.179
C 546.289 418.525 544.027 421.374 543.996 424.03 Z"
opacity="1" fill="rgb(217,175,74)" fill-rule="evenodd" />
<path d="
M 480.328 424.014
C 495.734 417.098 512.567 414.091 529.198 418.25
C 532.83 419.158 536.252 420.356 539.672 421.879
C 541.115 422.522 542.766 423.012 543.996 424.03
C 543.837 425.641 542.839 426.93 542.186 428.351
C 541.774 428.494 540.94 427.651 540.595 427.453
C 539.205 426.655 537.75 425.972 536.27 425.359
C 531.232 423.27 525.741 421.945 520.338 421.286
C 510.914 420.137 501.611 421.2 492.538 423.871
C 488.928 424.933 485.681 426.878 482.179 428.05
C 481.43 426.962 480.272 425.384 480.328 424.014 Z"
opacity="1" fill="rgb(34,95,155)" fill-rule="evenodd" />
<path d="
M 482.465 473.657
C 486.347 469.062 489.228 463.539 492.7 458.633
C 499.131 449.544 505.569 440.297 511.438 430.839
C 512.244 430.381 512.83 432.124 513.329 432.806
C 515.207 435.376 517.007 437.995 518.813 440.615
C 524.498 448.861 530.299 457.042 535.762 465.439
C 537.584 468.24 540.729 471.481 541.812 474.628
C 539.871 474.449 537.837 473.453 535.972 472.898
C 532.456 471.852 528.955 470.759 525.432 469.734
C 523.485 469.168 520.45 467.675 518.457 468.33
C 517.782 473.923 518.208 479.87 518.229 485.505
C 518.236 487.39 518.222 489.272 518.237 491.156
C 518.241 491.542 518.45 494.255 518.108 494.083
C 516.64 487.625 513.952 481.39 511.383 475.298
C 509.855 479.802 507.84 484.221 506.751 488.862
C 506.601 489.502 506.144 492.986 505.493 492.942
C 504.93 487.214 505.569 481.225 505.664 475.474
C 505.699 473.38 506.353 470.283 505.457 468.355
C 503.64 467.946 501.747 468.947 499.996 469.36
C 496.026 470.297 492.03 471.396 488.123 472.568
C 486.538 473.043 483.824 474.286 482.218 474.154
C 482.301 473.988 482.383 473.823 482.465 473.657 Z"
opacity="1" fill="rgb(220,181,79)" fill-rule="evenodd" />
<path d="
M 514.792 668.966
C 516.836 667.783 520.068 668.232 522.381 667.926
C 527.882 667.2 533.331 666.291 538.76 665.146
C 554.96 661.729 570.809 656.256 585.712 649.055
C 599.79 642.252 612.264 633.096 624.944 624.063
C 631.804 619.177 638.711 614.48 645.127 608.999
C 667.362 590.006 686.063 565.63 697.387 538.598
C 708.653 511.703 712.664 482.911 711.849 453.886
C 713.046 455.208 713.639 458.398 714.093 460.148
C 715.293 464.78 716.517 469.412 717.481 474.101
C 721.917 495.686 721.694 517.984 717.892 539.635
C 709 590.286 675.822 635.625 628.826 657.327
C 610.18 665.937 590.612 670.932 570.206 672.893
C 557.157 674.147 543.879 673.88 530.896 672.047
C 527.356 671.547 523.88 670.823 520.364 670.196
C 518.501 669.864 516.558 669.676 514.792 668.966 Z"
opacity="1" fill="rgb(207,163,63)" fill-rule="evenodd" />
<path d="
M 554.748 413.719
C 559.275 414.654 563.675 416.339 568.125 417.602
C 582.981 421.818 597.667 427.022 612.62 430.823
C 612.904 431.24 612.681 431.989 612.665 432.492
C 612.615 434.148 612.539 435.801 612.451 437.455
C 612.141 443.254 611.78 449.154 611.845 454.954
C 611.29 454.253 608.958 454.488 608.082 454.428
C 604.796 454.2 601.53 453.67 598.28 453.141
C 588.781 451.597 579.287 449.17 570.313 445.679
C 567.333 444.52 564.434 443.189 561.495 441.934
C 560.255 441.404 558.759 440.393 557.395 440.48
C 553.258 438.136 550.166 433.992 546.024 431.587
C 546.073 430.039 547.335 428.289 547.961 426.853
C 549.305 423.774 550.798 420.751 552.362 417.78
C 553.044 416.484 553.734 414.771 554.748 413.719 Z"
opacity="1" fill="rgb(219,43,39)" fill-rule="evenodd" />
<path d="
M 546.965 308.503
C 552.077 308.309 557.643 310.032 562.607 311.088
C 575.238 313.775 587.616 317.961 599.344 323.363
C 622.898 334.211 644.01 349.644 661.158 369.131
C 686.879 398.359 701.591 437.385 700.887 476.325
C 700.307 508.491 688.899 541.23 669.884 567.155
C 664.021 575.149 657.81 582.821 650.771 589.818
C 649.06 591.519 647.286 593.158 645.472 594.75
C 645.244 594.95 643.933 596.063 643.783 595.695
C 645.132 592.767 647.149 590.099 648.685 587.257
C 650.381 584.117 651.935 580.896 653.545 577.711
C 658.132 568.639 661.48 558.697 664.074 548.885
C 669.823 527.135 670.538 505.332 669.432 482.995
C 668.978 473.824 668.895 464.684 667.559 455.575
C 663.669 429.057 653.437 402.831 638.223 380.732
C 623.339 359.114 604.61 340.719 582.426 326.662
C 573.756 321.168 564.568 316.78 555.261 312.509
C 553.126 311.529 550.903 310.747 548.748 309.805
C 548.145 309.541 546.811 309.149 546.965 308.503 Z"
opacity="1" fill="rgb(208,162,64)" fill-rule="evenodd" />

</svg>